<mxfile host="app.diagrams.net" agent="Mozilla/5.0 (Windows NT 10.0; Win64; x64; rv:143.0) Gecko/20100101 Firefox/143.0" version="28.1.2">
  <diagram name="Page-1" id="DdtK2W1SqwpSfvpK938a">
    <mxGraphModel dx="983" dy="547" grid="1" gridSize="10" guides="1" tooltips="1" connect="1" arrows="1" fold="1" page="1" pageScale="1" pageWidth="850" pageHeight="1100" math="0" shadow="0" adaptiveColors="simple">
      <root>
        <mxCell id="0" />
        <mxCell id="1" parent="0" />
        <mxCell id="cIf180iwZ4gJFKfaal7i-22" value="" style="swimlane;startSize=0;align=center;strokeWidth=2;" vertex="1" parent="1">
          <mxGeometry x="160" y="150" width="440" height="370" as="geometry" />
        </mxCell>
        <mxCell id="cIf180iwZ4gJFKfaal7i-6" value="CargarDatos" style="swimlane;fontStyle=0;childLayout=stackLayout;horizontal=1;startSize=30;horizontalStack=0;resizeParent=1;resizeParentMax=0;resizeLast=0;collapsible=1;marginBottom=0;whiteSpace=wrap;html=1;" vertex="1" parent="cIf180iwZ4gJFKfaal7i-22">
          <mxGeometry x="10" y="220" width="420" height="130" as="geometry" />
        </mxCell>
        <mxCell id="cIf180iwZ4gJFKfaal7i-8" value="&lt;i&gt;&amp;nbsp;&lt;/i&gt;" style="text;strokeColor=none;fillColor=none;align=left;verticalAlign=middle;spacingLeft=4;spacingRight=4;overflow=hidden;points=[[0,0.5],[1,0.5]];portConstraint=eastwest;rotatable=0;whiteSpace=wrap;html=1;" vertex="1" parent="cIf180iwZ4gJFKfaal7i-6">
          <mxGeometry y="30" width="420" height="50" as="geometry" />
        </mxCell>
        <mxCell id="cIf180iwZ4gJFKfaal7i-21" value="" style="endArrow=none;html=1;rounded=0;entryX=1;entryY=-0.007;entryDx=0;entryDy=0;entryPerimeter=0;exitX=-0.002;exitY=1.008;exitDx=0;exitDy=0;exitPerimeter=0;" edge="1" parent="cIf180iwZ4gJFKfaal7i-6" target="cIf180iwZ4gJFKfaal7i-9">
          <mxGeometry width="50" height="50" relative="1" as="geometry">
            <mxPoint y="79.66999999999996" as="sourcePoint" />
            <mxPoint x="351" y="79.66999999999996" as="targetPoint" />
          </mxGeometry>
        </mxCell>
        <mxCell id="cIf180iwZ4gJFKfaal7i-9" value="&lt;div&gt;+ &lt;u&gt;cargarParadas (String):&amp;nbsp; Map&amp;lt;Integer, Parada&amp;gt;&lt;/u&gt;&lt;/div&gt;&lt;div&gt;&lt;div&gt;+ &lt;u&gt;cargarTramos&amp;nbsp; (String, Map&amp;lt;Integer, Parada&amp;gt;):&amp;nbsp; Map&amp;lt;String, Tramo&amp;gt;&lt;/u&gt;&lt;/div&gt;&lt;div&gt;&lt;div&gt;+ &lt;u&gt;cargarLineas&amp;nbsp; (String, String, Map&amp;lt;Integer, Parada&amp;gt;):&amp;nbsp; Map&amp;lt;String, Linea&amp;gt;&lt;/u&gt;&lt;/div&gt;&lt;br&gt;&lt;/div&gt;&lt;br&gt;&lt;/div&gt;" style="text;strokeColor=none;fillColor=none;align=left;verticalAlign=middle;spacingLeft=4;spacingRight=4;overflow=hidden;points=[[0,0.5],[1,0.5]];portConstraint=eastwest;rotatable=0;whiteSpace=wrap;html=1;" vertex="1" parent="cIf180iwZ4gJFKfaal7i-6">
          <mxGeometry y="80" width="420" height="50" as="geometry" />
        </mxCell>
        <mxCell id="cIf180iwZ4gJFKfaal7i-10" value="CargarParametros" style="swimlane;fontStyle=0;childLayout=stackLayout;horizontal=1;startSize=30;horizontalStack=0;resizeParent=1;resizeParentMax=0;resizeLast=0;collapsible=1;marginBottom=0;whiteSpace=wrap;html=1;" vertex="1" parent="cIf180iwZ4gJFKfaal7i-22">
          <mxGeometry x="30" y="20" width="350" height="190" as="geometry" />
        </mxCell>
        <mxCell id="cIf180iwZ4gJFKfaal7i-11" value="&lt;div&gt;&lt;u&gt;archivoLinea: String&lt;/u&gt;&lt;/div&gt;&lt;div&gt;&lt;u&gt;archivoParada: String&lt;/u&gt;&lt;/div&gt;&lt;div&gt;&lt;u&gt;archivoTramo: String&lt;/u&gt;&lt;/div&gt;&lt;div&gt;&lt;u&gt;archivoFrecuencia: String&lt;/u&gt;&lt;/div&gt;" style="text;strokeColor=none;fillColor=none;align=left;verticalAlign=middle;spacingLeft=4;spacingRight=4;overflow=hidden;points=[[0,0.5],[1,0.5]];portConstraint=eastwest;rotatable=0;whiteSpace=wrap;html=1;" vertex="1" parent="cIf180iwZ4gJFKfaal7i-10">
          <mxGeometry y="30" width="350" height="80" as="geometry" />
        </mxCell>
        <mxCell id="cIf180iwZ4gJFKfaal7i-12" value="&lt;div&gt;+ parametros(): void&lt;/div&gt;&lt;div&gt;+ getArchivoLinea(): String&lt;/div&gt;&lt;div&gt;+ getArchivoParada(): String&lt;/div&gt;&lt;div&gt;+ getArchivoFrecuencia(): String&lt;/div&gt;&lt;div&gt;+ getArchivoTramo(): String&lt;/div&gt;" style="text;strokeColor=none;fillColor=none;align=left;verticalAlign=middle;spacingLeft=4;spacingRight=4;overflow=hidden;points=[[0,0.5],[1,0.5]];portConstraint=eastwest;rotatable=0;whiteSpace=wrap;html=1;" vertex="1" parent="cIf180iwZ4gJFKfaal7i-10">
          <mxGeometry y="110" width="350" height="80" as="geometry" />
        </mxCell>
        <mxCell id="cIf180iwZ4gJFKfaal7i-20" value="" style="endArrow=none;html=1;rounded=0;entryX=0.999;entryY=0.017;entryDx=0;entryDy=0;entryPerimeter=0;exitX=-0.002;exitY=1.008;exitDx=0;exitDy=0;exitPerimeter=0;" edge="1" parent="cIf180iwZ4gJFKfaal7i-10" source="cIf180iwZ4gJFKfaal7i-11" target="cIf180iwZ4gJFKfaal7i-12">
          <mxGeometry width="50" height="50" relative="1" as="geometry">
            <mxPoint x="410" y="-20" as="sourcePoint" />
            <mxPoint x="460" y="-70" as="targetPoint" />
          </mxGeometry>
        </mxCell>
        <mxCell id="cIf180iwZ4gJFKfaal7i-23" value="" style="swimlane;startSize=0;strokeWidth=2;" vertex="1" parent="1">
          <mxGeometry x="160" y="120" width="150" height="30" as="geometry" />
        </mxCell>
        <mxCell id="cIf180iwZ4gJFKfaal7i-24" value="Datos" style="text;html=1;align=center;verticalAlign=middle;resizable=0;points=[];autosize=1;strokeColor=none;fillColor=none;fontSize=16;" vertex="1" parent="cIf180iwZ4gJFKfaal7i-23">
          <mxGeometry x="20" width="70" height="30" as="geometry" />
        </mxCell>
      </root>
    </mxGraphModel>
  </diagram>
</mxfile>
